<svg width="24" height="24" viewBox="0 0 24 24" fill="none" xmlns="http://www.w3.org/2000/svg">
<path d="M7.7574 6.34313L11.9993 10.5852L16.2427 6.34313C16.6332 5.9526 17.2664 5.9526 17.6569 6.34313C18.0474 6.73365 18.0474 7.36681 17.6569 7.75734L13.4143 11.9992L17.6569 16.2426C18.0474 16.6331 18.0474 17.2663 17.6569 17.6568C17.2664 18.0474 16.6332 18.0474 16.2427 17.6568L11.9993 13.4142L7.7574 17.6568C7.36688 18.0474 6.73371 18.0474 6.34319 17.6568C5.95266 17.2663 5.95266 16.6331 6.34319 16.2426L10.5853 11.9992L6.34319 7.75734C5.95266 7.36681 5.95266 6.73365 6.34319 6.34313C6.73371 5.9526 7.36688 5.9526 7.7574 6.34313Z" fill="#0082FF"/>
</svg>
